<?xml version="1.0" encoding="utf-8"?>
<!-- Generator: Adobe Illustrator 22.1.0, SVG Export Plug-In . SVG Version: 6.00 Build 0)  -->
<svg version="1.1" id="Layer_1" xmlns="http://www.w3.org/2000/svg" xmlns:xlink="http://www.w3.org/1999/xlink" x="0px" y="0px"
	 width="12px" height="18px" viewBox="0 0 12 18" style="enable-background:new 0 0 12 18;" xml:space="preserve">
<style type="text/css">
	.st0{fill:#009DDC;}
</style>
<path class="st0" d="M10.1,18c0.4,0,0.8-0.1,1.1-0.4c0.5-0.6,0.5-1.4-0.1-2L4,9L11,2.4c0.5-0.4,0.6-1.3,0.1-1.9
	C10.8,0.2,10.4,0,10,0C9.8,0,9.4,0.1,9.1,0.4L1,8C0.7,8.3,0.5,8.7,0.5,9c0,0.3,0.2,0.7,0.5,1l8.2,7.6C9.4,17.9,9.8,18,10.1,18z"/>
</svg>
