<?xml version="1.0" encoding="utf-8"?>
<!-- Generator: Adobe Illustrator 23.0.6, SVG Export Plug-In . SVG Version: 6.00 Build 0)  -->
<svg version="1.1" id="Layer_1" xmlns="http://www.w3.org/2000/svg" xmlns:xlink="http://www.w3.org/1999/xlink" x="0px" y="0px"
	 width="18px" height="18px" viewBox="0 0 18 18" style="enable-background:new 0 0 18 18;" xml:space="preserve">
<style type="text/css">
	.st0{fill:#FFFFFF;}
</style>
<g>
	<path class="st0" d="M18,4.4c0,0.3,0,0.5,0,0.6c0,3.1,0,6.2,0,9.3c0,0.7-0.1,0.7-0.9,0.7c-5.5,0-10.9,0-16.3,0
		C0.1,15,0,14.9,0,14.3C0,11.2,0,8.1,0,5c0-0.2,0-0.3,0-0.6c0.2,0.2,0.3,0.3,0.5,0.4c2.6,2.3,5.2,4.7,7.8,7c0.7,0.6,0.7,0.6,1.4,0
		c2.6-2.3,5.3-4.7,7.9-7C17.7,4.7,17.7,4.6,18,4.4z"/>
	<path class="st0" d="M9,3.1c2.5,0,4.9,0,7.4,0c0.3,0,0.6,0.1,0.6,0.2c0.1,0.2-0.1,0.5-0.2,0.6c-2.5,2.2-4.9,4.4-7.4,6.6
		c-0.3,0.3-0.6,0.3-0.9,0C6,8.4,3.5,6.1,1,3.9C0.9,3.7,0.7,3.5,0.8,3.3S1.2,3,1.5,3C4,3.1,6.5,3.1,9,3.1z"/>
</g>
</svg>
