<?xml version="1.0" encoding="utf-8"?>
<!-- Generator: Adobe Illustrator 21.1.0, SVG Export Plug-In . SVG Version: 6.00 Build 0)  -->
<svg version="1.1" id="Layer_2" xmlns="http://www.w3.org/2000/svg" xmlns:xlink="http://www.w3.org/1999/xlink" x="0px" y="0px"
	 width="142px" height="73px" viewBox="0 0 142 73" style="enable-background:new 0 0 142 73;" xml:space="preserve">
<style type="text/css">
	.st0{fill:#009DDC;}
	.st1{fill:#FFFFFF;}
</style>
<g>
	<path class="st0" d="M142,32.7c-0.2-0.9-0.5-1.7-0.9-2.5c-0.3-0.7-0.8-1.3-1.3-1.9c-0.3-0.4-0.7-0.8-1.1-1.1
		c0.3-0.8,0.4-1.7,0.4-2.5c0-0.5-0.1-1.1-0.2-1.6c-0.2-0.8-0.4-1.5-0.8-2.1c-0.3-0.6-0.7-1.1-1.1-1.5c-0.7-0.8-1.5-1.3-2.2-1.7
		c-1.1-0.6-2.3-1-3.4-1.2c-1.1-0.2-2.3-0.3-3.5-0.3c-1.4,0-2.8,0.1-4.3,0.4c-1.2,0.2-2.4,0.6-3.6,1.1c-0.9,0.4-1.8,0.9-2.6,1.4
		c-0.4,0.3-0.8,0.6-1.2,0.9c-0.5-0.2-0.9-0.4-1.4-0.5c-0.1,0-0.2,0-0.3-0.1c-0.1-0.4-0.3-0.9-0.6-1.3c-0.3-0.6-0.7-1.2-1.2-1.7
		c-0.7-0.8-1.7-1.4-2.6-1.8c-1-0.4-2-0.5-2.9-0.5c-0.6,0-1.2,0.1-1.8,0.2c-0.8,0.2-1.5,0.4-2.3,0.8c-0.6,0.3-1.1,0.7-1.6,1.1
		c-0.8,0.7-1.4,1.6-1.8,2.6c-0.4,1-0.6,2-0.6,3c0,0.4,0,0.8,0.1,1.1c-0.2,0.2-0.4,0.4-0.5,0.6c-0.3-0.1-0.4-0.1-0.6-0.2
		c-1.4-0.5-2.8-0.7-4-0.7c-1,0-2,0.1-2.9,0.3c-1.2,0.2-2.3,0.6-3.3,1.1c-0.1,0-0.2,0.1-0.3,0.1c0-0.6-0.1-1.1-0.2-1.6l-1.3-6.3
		c-0.1-0.4-0.1-0.7-0.2-1c0.5-0.1,0.9-0.3,1.4-0.5c0.5-0.3,1.1-0.6,1.6-1c0.8-0.6,1.5-1.5,2-2.5c0.2-0.5,0.4-1.1,0.5-1.6
		c0.1-0.6,0.2-1.1,0.2-1.7s-0.1-1.2-0.2-1.8c-0.2-0.9-0.5-1.8-1-2.6c-0.8-1.2-1.8-2.1-3-2.7c-1.1-0.5-2.4-0.8-3.7-0.8
		c-0.6,0-1.2,0.1-1.8,0.2c-0.7,0.1-1.4,0.4-2,0.7c-0.5,0.2-1,0.5-1.4,0.9c-0.6-0.2-1.3-0.2-1.9-0.2c-0.6,0-1.1,0.1-1.6,0.2
		c-0.8,0.2-1.5,0.4-2.3,0.8c-0.6,0.2-1.1,0.5-1.6,1c-0.7,0.7-1.3,1.5-1.7,2.5c0,0.1,0,0.1-0.1,0.2c-0.6-0.3-1.2-0.6-1.9-0.8
		c-1.6-0.6-3.3-0.9-5.1-0.9c-1.1,0-2.3,0.1-3.5,0.4c-1.8,0.4-3.6,1-5.1,1.9c-1.2,0.7-2.2,1.5-3.2,2.4c-0.8,0.8-1.5,1.7-2.1,2.7
		c-0.6-0.5-1.4-1-2.1-1.4c-0.9-0.5-1.8-0.8-2.8-1.1c-1-0.2-2.1-0.4-3.1-0.4c-1,0-1.9,0.1-2.9,0.3c-0.1,0-0.3,0.1-0.4,0.1
		c-0.2-0.7-0.4-1.3-0.8-2C36,7,35.6,6.4,35.1,5.9c-0.8-0.8-1.7-1.4-2.7-1.8c-1-0.4-2-0.5-2.9-0.5c-0.6,0-1.2,0.1-1.8,0.2
		c-0.8,0.2-1.5,0.4-2.3,0.8c-0.6,0.3-1.1,0.7-1.6,1.1C23,6.4,22.4,7.3,22,8.3c-0.4,1-0.6,2-0.6,3c0,0.5,0.1,1.1,0.1,1.6
		c-0.1,0-0.1,0-0.2,0c-0.7,0-1.3,0.1-1.9,0.2c-0.8,0.2-1.7,0.4-2.5,0.9c-0.6,0.3-1.2,0.7-1.7,1.3c-0.4,0.4-0.7,0.8-1,1.3
		c-0.2,0.4-0.4,0.8-0.6,1.2c-0.2-0.2-0.3-0.3-0.5-0.5c-0.7-0.5-1.4-1-2.3-1.3c-0.8-0.3-1.7-0.4-2.5-0.4c-0.7,0-1.3,0.1-1.9,0.2
		c-0.8,0.2-1.7,0.4-2.5,0.9C3.3,17,2.7,17.5,2.2,18c-0.4,0.4-0.7,0.8-1,1.3c-0.4,0.7-0.7,1.4-0.9,2.1c-0.1,0.6-0.2,1.2-0.2,1.8
		c0,0.7,0.1,1.3,0.2,1.9l2.2,10.6c0.3,1.6,0.8,3,1.6,4.3c0.6,1,1.2,1.9,2,2.6c1.2,1.1,2.6,1.9,3.9,2.4c1.4,0.5,2.8,0.7,4,0.7
		c1,0,2-0.1,2.9-0.3c1.2-0.2,2.3-0.6,3.3-1.1c0.6-0.3,1.2-0.6,1.7-1c0,0,0,0,0.1,0c0.8,0.3,1.6,0.4,2.4,0.4c0.6,0,1.2-0.1,1.7-0.2
		c0.6-0.1,1.2-0.3,1.8-0.6c0,0.4,0.1,0.8,0.2,1.1l4.6,22.4c0.2,0.8,0.4,1.6,0.9,2.4c0.3,0.6,0.7,1.2,1.2,1.7
		c0.7,0.8,1.6,1.4,2.6,1.8s2,0.5,2.9,0.5c0.6,0,1.2-0.1,1.8-0.2c0.7-0.2,1.5-0.4,2.3-0.8c0.6-0.3,1.1-0.7,1.6-1.1
		c0.8-0.7,1.4-1.6,1.8-2.6c0.4-1,0.6-2,0.6-3c0-0.4,0-0.9-0.1-1.3c0.1,0,0.3,0,0.4-0.1c1.7-0.4,3.4-1,4.8-1.9c1.1-0.7,2-1.5,2.8-2.5
		c0.1-0.1,0.2-0.3,0.3-0.4c0.1,0.1,0.2,0.2,0.4,0.3c0.7,0.5,1.4,1,2.3,1.3c0.8,0.3,1.7,0.4,2.5,0.4c0.7,0,1.3-0.1,1.9-0.2
		c0.8-0.2,1.7-0.4,2.5-0.9c0.6-0.3,1.2-0.7,1.7-1.3c0.4-0.4,0.7-0.8,1-1.3c0.4-0.7,0.7-1.4,0.9-2.1c0.2-0.7,0.2-1.3,0.2-1.9
		c0,0.1,0,0.1,0.1,0.2c0.2,0.5,0.5,1.1,0.9,1.6c-0.2,0.7-0.3,1.5-0.3,2.2c0,0.5,0.1,1.1,0.2,1.6c0.2,0.8,0.5,1.7,1,2.5
		c0,0,0,0,0,0.1c0.7,1.2,1.7,2.1,2.9,2.8s2.6,1.1,4,1.1c0.5,0,1.1-0.1,1.6-0.2c0.7-0.2,1.4-0.4,2.1-0.7c0.2,0.7,0.5,1.4,0.8,2.1
		c0.4,0.8,0.9,1.5,1.5,2.2c0.9,1,2.1,1.9,3.5,2.5c1.3,0.6,2.8,0.9,4.3,0.9c0.9,0,1.8-0.1,2.7-0.3c1.2-0.2,2.3-0.6,3.3-1.2
		c0.8-0.4,1.6-1,2.2-1.6c0.4,0.2,0.9,0.3,1.3,0.4c0.8,0.2,1.6,0.2,2.3,0.2c0.9,0,1.8-0.1,2.7-0.3c1.3-0.3,2.6-0.7,3.7-1.4
		c0.5-0.3,1-0.6,1.5-1c0.2,0.1,0.4,0.2,0.6,0.2c0.7,0.2,1.5,0.3,2.1,0.3c0.5,0,1.1-0.1,1.5-0.2c0.7-0.1,1.3-0.4,2-0.7
		c0.5-0.3,0.9-0.6,1.4-1c0,0,0.1,0,0.1,0.1c0.7,0.2,1.5,0.3,2.1,0.3c0.5,0,1.1-0.1,1.5-0.2c0.6-0.1,1.3-0.4,2-0.7
		c0.5-0.3,0.9-0.6,1.4-1c0,0,0.1,0,0.1,0.1c0.7,0.2,1.5,0.3,2.1,0.3c0.5,0,1.1-0.1,1.5-0.2c0.6-0.1,1.3-0.4,2-0.7
		c0.5-0.3,1-0.6,1.5-1.1c0.3-0.3,0.7-0.7,0.9-1.1c0.4-0.6,0.6-1.3,0.8-1.9s0.2-1.2,0.2-1.6c0-0.6-0.1-1.1-0.2-1.5l-1.3-6.5
		c-0.2-1-0.5-2-1-2.9c-0.1-0.3-0.3-0.5-0.5-0.8c0.4-0.2,0.9-0.3,1.3-0.5c0.9-0.4,1.8-1,2.7-1.6c0.6-0.5,1.3-1,1.8-1.6
		c0.9-0.9,1.6-2,2.1-3.3c0.5-1.3,0.8-2.7,0.8-4.2C142.2,34.3,142,33.5,142,32.7z M37.2,9.9L37.2,9.9z"/>
	<path class="st0" d="M58.7,5.1L58.9,5L58.7,5.1z"/>
	<path class="st1" d="M105,30l0.9-0.2l2.4,11.6c0.7,3.2,2.6,4.5,6.6,3.7c2.6-0.5,3.8-1.7,3.5-3.2c-0.2-1.2-1.1-1.7-2.3-1.4l-0.8,0.2
		c-1,0.2-1.5-0.2-1.7-1l-2.2-10.9l1.6-0.3c1.6-0.3,2.4-1,2.1-2.3c-0.3-1.3-1.2-1.6-2.8-1.3l-1.6,0.3l-0.7-3.3
		c-0.4-1.8-1.6-2.5-3.3-2.2c-1.6,0.3-2.5,1.5-2.2,3.3l0.7,3.3l-0.9,0.2c-1.5,0.3-2,1-1.8,2.2C102.7,29.8,103.5,30.3,105,30z"/>
	<path class="st1" d="M77.2,25c0.3,1.5,1.1,2.6,3.3,2.2c2.1-0.4,2.5-1.8,2.2-3.3l-1.3-6.3c-0.9-4.5,0-6.3,2.2-6.7l1-0.2
		c1.3-0.3,2.5-1.3,2.1-3.3c-0.3-1.5-1.8-2.4-3.5-2c-2.7,0.5-3.4,3.1-3.6,5.6h-0.2L79,8.9c-0.3-1.6-1.6-2.3-3-2
		c-1.4,0.3-2.3,1.4-1.9,3L77.2,25z"/>
	<path class="st1" d="M23.8,20.3c-0.3-1.5-1.2-2.6-3.3-2.2c-2.1,0.4-2.5,1.8-2.2,3.3l1.8,9c0.6,2.7-1.4,4.7-3.3,5.1
		c-2.4,0.5-3.8-0.9-4.2-3.1l-1.9-9.5c-0.3-1.5-1.2-2.6-3.3-2.2c-2.1,0.4-2.5,1.8-2.2,3.3l2.2,10.6c1.1,5.5,5.1,6.4,8.3,5.8
		c3.1-0.6,4.8-2.5,5.9-4.8h0.1l0.1,0.7c0.3,1.6,1.3,2.6,3,2.2c1.7-0.4,2.2-1.6,1.9-3.2L23.8,20.3z"/>
	<path class="st1" d="M43.2,38.5c-2.6,0.5-4.6,2.1-5,4.6h-0.1l-0.2-0.9c-0.3-1.7-1.4-2.4-3-2.1c-1.7,0.3-2.3,1.4-1.9,3.1l4.6,22.4
		c0.4,1.8,1.6,2.5,3.3,2.2c1.6-0.3,2.5-1.5,2.2-3.3l-1.5-7.3h0.1c1.4,1.5,3.4,2.2,5.9,1.7c5.7-1.2,7.4-6.6,6.3-11.8
		C52.5,40,47.9,37.5,43.2,38.5z M45.4,55c-3.3,0.7-5-2.3-5.6-5.1c-0.6-3.1,0-6.2,3.1-6.8c2.9-0.5,4.9,1.8,5.5,5
		C49,50.6,48.9,54.2,45.4,55z"/>
	<path class="st1" d="M65.2,33.9c-2.6,0.5-3.5,3.1-3.6,5.6h-0.1l-0.4-2.1c-0.3-1.6-1.6-2.3-3-2c-1.4,0.3-2.3,1.4-1.9,3l3.1,15.2
		c0.3,1.5,1.2,2.6,3.3,2.2c2.1-0.4,2.5-1.8,2.2-3.3l-1.4-6.4c-0.9-4.5,0-6.3,2.2-6.7l1-0.2c1.3-0.3,2.5-1.3,2.1-3.3
		C68.3,34.4,66.8,33.5,65.2,33.9z"/>
	<path class="st1" d="M77.7,52.7c2.1-0.4,2.5-1.8,2.2-3.3l-3.1-15c-0.3-1.5-1.1-2.6-3.3-2.2c-2.1,0.4-2.5,1.8-2.2,3.3l3.1,15
		C74.7,52,75.6,53.2,77.7,52.7z"/>
	<path class="st1" d="M78.1,54.6c-1.6,0.3-2.6,1.9-2.2,3.4c0.1,0.4,0.2,0.6,0.4,1c0.6,1,1.8,1.6,3.1,1.4c0.3-0.1,0.6-0.2,0.9-0.3
		c1-0.6,1.6-1.8,1.4-3.1C81.2,55.3,79.7,54.3,78.1,54.6z"/>
	<path class="st1" d="M100.7,48c2.1-0.4,2.5-1.8,2.2-3.3L100.7,34c-1.1-5.5-5-6.4-8.3-5.8c-3.1,0.6-4.8,2.5-5.9,4.8h-0.1l-0.1-0.7
		c-0.3-1.6-1.3-2.6-3-2.2c-1.7,0.4-2.2,1.6-1.9,3.2l3.1,15c0.3,1.4,1.2,2.6,3.3,2.2c2.1-0.4,2.5-1.8,2.2-3.3l-1.8-9
		c-0.6-2.7,1.4-4.7,3.3-5c2.4-0.5,3.8,0.9,4.2,3.1l2,9.5C97.8,47.3,98.7,48.4,100.7,48z"/>
	<path class="st1" d="M96.7,61.6c-1.7,0.3-0.8,2.3-3,2.7c-1.7,0.4-2.9-0.7-3.3-2.7c-0.6-2.9,0.7-4,1.9-4.3c2.3-0.5,2.1,1.5,3.6,1.2
		c0.8-0.2,1.4-0.8,1.2-1.7c-0.3-1.5-2.6-2.6-5.3-2c-3.9,0.8-5.4,3.8-4.7,7.4c0.7,3.3,3,5.4,6.9,4.6c3.3-0.7,4.4-2.9,4.2-4.3
		C98.1,62,97.5,61.5,96.7,61.6z"/>
	<path class="st1" d="M129.9,51.1c-0.6-2.9-2.6-3.5-4.8-3c-1.7,0.4-2.7,1.3-3.3,2.8c-0.9-1.4-2.4-1.6-3.5-1.4
		c-1.6,0.3-2.9,1.4-3.4,2.8l-0.1-0.4c-0.2-1-0.9-1.5-1.8-1.3s-1.4,0.9-1.2,1.9l1.8,8.8c0.2,0.8,0.7,1.5,1.9,1.3
		c1.2-0.3,1.4-1.1,1.3-1.9l-1.1-5.3c-0.3-1.5,0.6-2.7,1.8-2.9c1.2-0.3,1.9,0.6,2.2,1.7l1.2,5.7c0.2,0.9,0.7,1.5,1.9,1.3
		c1.2-0.3,1.4-1.1,1.3-1.9L123,54c-0.3-1.5,0.6-2.7,1.8-2.9c1.2-0.3,1.9,0.6,2.2,1.7l1.2,5.7c0.2,0.9,0.7,1.5,1.9,1.3
		c1.2-0.3,1.4-1.1,1.3-1.9L129.9,51.1z"/>
	<path class="st1" d="M136.9,33.7c-0.8-3.8-4.7-4.3-8-4.4l-2.4-0.1c-1.7,0-3-0.1-3.3-1.3c-0.2-1.2,0.9-1.9,2.8-2.3
		c3.4-0.7,4,1.8,6.1,1.3c1.4-0.3,2-1.6,1.8-2.9c-0.5-2.5-5-3.3-9.2-2.4c-3.8,0.8-7.8,3.3-6.9,7.8c0.7,3.7,3.5,4.5,6.8,4.6l3.4,0.1
		c2,0.1,3.3,0.1,3.6,1.4c0.2,1.1-0.8,2.2-2.8,2.6c-4,0.8-4.9-2.5-7.3-2c-1.5,0.3-2,1.5-1.7,2.7c0.5,2.7,5.1,4,10,3
		C134,41.2,137.8,38.3,136.9,33.7z"/>
	<path class="st1" d="M103.6,52.5c-3.8,0.8-5.3,3.8-4.7,7.2c0.7,3.2,2.8,5.7,7.1,4.8s5.3-4,4.6-7.2C110,53.9,107.4,51.7,103.6,52.5z
		 M105.5,62.1c-1.9,0.4-3.1-1.1-3.4-3.1c-0.4-2.1,0.1-3.8,2-4.2c1.9-0.4,3,1,3.4,3.1C107.9,59.8,107.4,61.7,105.5,62.1z"/>
	<path class="st1" d="M34.3,36.8c1.6-0.3,2.3-1.4,1.9-3.1L36,32.7h0.1c1.4,2.1,3.8,2.8,6.4,2.3c4.5-0.9,7.9-5.1,6.4-12.1
		c-1.1-5.2-4.7-9.6-10.5-8.4c-2.4,0.5-4.1,1.9-4.8,3.9h-0.1L32.2,11c-0.4-1.8-1.6-2.5-3.3-2.2c-1.7,0.3-2.5,1.5-2.2,3.3l4.6,22.5
		C31.7,36.4,32.7,37,34.3,36.8z M38.1,19c3.5-0.7,5,2.6,5.6,5.2c0.7,3.2-0.2,6.1-3.1,6.8c-3.2,0.6-4.9-1.9-5.6-5
		C34.3,23.1,34.7,19.6,38.1,19z"/>
	<path class="st1" d="M71.8,24c-0.2-1-1.4-1.9-2.7-1.7c-2.2,0.4-1.7,3.1-5.8,4c-3.2,0.7-5.5-1.1-6.1-3.9l12.3-2.5
		c1.8-0.4,2.3-1,1.9-2.8c-0.8-4.6-5.3-8.3-11.6-7c-6.5,1.3-9.4,6.4-8.1,12.7c1,4.7,4.9,9.3,12.5,7.7C67.6,29.8,72.5,27.2,71.8,24z
		 M60.7,13.9c2.4-0.5,4.7,0.9,5.5,3.4l-9.5,2C56.7,16.4,58.1,14.4,60.7,13.9z"/>
</g>
</svg>
